<svg xmlns="http://www.w3.org/2000/svg" viewBox="0 0 512 512" role="img" aria-labelledby="title">
  <title id="title">Metagross parallel interweave symbol</title>
  <g fill="currentColor">
  <path d="M303.46 50.83 L224.23 132.30 L287.77 196.58 L344.57 145.00 L415.58 215.26 L415.58 241.42 L372.98 284.03 L438.00 350.55 L512.00 276.55 L512.00 167.43 L396.15 50.83 Z"/>
  <path d="M28.40 0.00 L28.40 42.60 L458.93 480.61 L458.93 412.59 L178.64 123.33 L214.52 85.96 L129.31 0.00 Z"/>
  <path d="M84.46 241.42 L0.75 325.14 L0.75 390.17 L119.59 512.00 L202.56 512.00 L276.55 436.51 L214.52 372.98 L169.67 417.82 L162.20 417.82 L98.66 354.29 L98.66 346.07 L143.51 299.73 Z"/>
  <path d="M29.90 80.72 L29.90 148.74 L387.18 512.00 L452.95 512.00 Z"/>
  </g>
</svg>
